<svg xmlns="http://www.w3.org/2000/svg" viewBox="0 0 24 24" fill="#fbbf24">
    <path d="M7 4a3 3 0 1 0 0 6 3 3 0 0 0 0-6zm0 2a1 1 0 1 1 0 2 1 1 0 0 1 0-2z" />
    <path d="M15 2a4 4 0 1 0 0 8 4 4 0 0 0 0-8zm0 3a1 1 0 1 1 0 2 1 1 0 0 1 0-2z" />
    <path d="M4 10h12v8H4z" />
    <path d="M16 12l6-3v10l-6-3v-4z" />
    <path d="M10 18l-3 6" stroke="#fbbf24" stroke-width="2" stroke-linecap="round" />
    <path d="M14 18l3 6" stroke="#fbbf24" stroke-width="2" stroke-linecap="round" />
    <path d="M12 18v6" stroke="#fbbf24" stroke-width="2" stroke-linecap="round" />
</svg>
